<svg version="1.1" xmlns="http://www.w3.org/2000/svg" xmlns:xlink="http://www.w3.org/1999/xlink" >
    <g>  
<g>
	<path fill="none" d="M62.537,64.73l-2.898-12.693l-3.209-1.548l-3.115-1.502l-1.788-0.857l-3.145-1.515l-1.18-0.569l-8.098,3.899   l-4.128,1.987c2.496,1.883,5.164,3.736,7.986,5.529c6.396,4.059,12.75,7.285,18.54,9.555l1.212-1.521L62.537,64.73z" data-part-id="logo__item--logo_0__0"></path>
	<path fill="none" d="M78.646,69.98l-9.469-0.432c7.924,2.066,13.912,1.709,16-1.58c0.318-0.502,0.5-1.072,0.621-1.67   c0.061-1.162-0.139-2.473-0.545-3.871L78.646,69.98z" data-part-id="logo__item--logo_0__1"></path>
	<path fill="none" d="M83.797,42.528L71.641,35.98l-12.695,5.415l-1.594,5.76l5.243,2.528l3.726,16.328l10.846,0.496l6.662-7.621   c-0.582-1.137-1.26-2.297-2.078-3.463c0.26,0.328,0.502,0.656,0.746,0.982c-0.248-0.371-0.48-0.73-0.752-1.105   c0.893,1.098,1.691,2.17,2.406,3.217l2.104-2.404L83.797,42.528z" data-part-id="logo__item--logo_0__2"></path>
	<path fill="none" d="M50.561,43.884l3.775-4.734l-3.072-13.458l-12.44-5.994l-12.439,5.994l-3.07,13.458l7.685,9.638   c0.323,0.271,0.656,0.542,0.989,0.81l15.214-7.327L50.561,43.884z" data-part-id="logo__item--logo_0__3"></path>
	<path fill="none" d="M27.621,21.32c-5.977-1.023-10.403-0.271-12.146,2.544c-0.368,0.593-0.596,1.259-0.708,1.987   c-0.375,3.11,1.59,7.362,5.333,12.077l3.333-14.591L27.621,21.32z" data-part-id="logo__item--logo_0__4"></path>
	<path fill="none" d="M40.299,76.289h13.806l4.499-5.643c-5.634-2.445-11.677-5.686-17.75-9.641c-2.452-1.598-4.792-3.238-7.017-4.9   l-2.146,9.389L40.299,76.289z" data-part-id="logo__item--logo_0__5"></path>
	<polygon fill="#0081B4" points="30.281,53.348 30.281,53.348 30.281,53.348" data-part-id="logo__item--logo_0__6"></polygon>
	<path fill="#0081B4" d="M54.104,76.289H40.299L31.69,65.494l2.146-9.389c-1.019-0.76-2.004-1.525-2.968-2.291L28.008,66.34   L38.66,79.693h17.084l6.135-7.695c-1.072-0.418-2.166-0.869-3.275-1.352L54.104,76.289z" data-part-id="logo__item--logo_0__7"></path>
	<path fill="#0081B4" d="M31.712,22.205c0.176,0.057,0.353,0.107,0.532,0.169c-1.622-0.457-3.167-0.805-4.623-1.053l-4.188,2.017   L20.1,37.928c2.748,3.462,6.453,7.173,10.899,10.859l-7.685-9.638l3.07-13.458l12.439-5.994l12.44,5.994l3.072,13.458l-2.223,5.375   l-4.912-2.255l-15.214,7.327c0.964,0.78,1.962,1.561,2.988,2.334l4.128-1.987l8.098-3.899l1.18,0.569l3.145,1.515l1.788,0.857   l3.115,1.502l3.209,1.548l2.898,12.693l0.177,0.764l-1.212,1.521c2.697,1.057,5.275,1.906,7.676,2.533l9.469,0.432l6.607-7.553   c-0.334-1.137-0.805-2.318-1.426-3.541l-6.662,7.621L66.32,66.012l-3.726-16.328l-6.026-3.047l2.377-5.241l12.695-5.415   l12.156,6.548l2.457,13.585l-2.104,2.404c0.715,1.045,1.336,2.059,1.863,3.037l3.879-4.434l-3.039-16.813l-15.039-8.103   l-14.192,6.056l-3.408-14.923l-15.39-7.412l-10.795,5.196c1.356,0.343,2.762,0.746,4.218,1.222   C32.067,22.294,31.891,22.252,31.712,22.205z" data-part-id="logo__item--logo_0__8"></path>
	<path fill="#FFFFFF" d="M22.109,20.014c0.604,0.069,1.222,0.154,1.86,0.258C23.331,20.168,22.713,20.083,22.109,20.014z" data-part-id="logo__item--logo_0__9"></path>
	<path fill="#FFFFFF" d="M83.828,58.887c0.621,1.223,1.092,2.404,1.426,3.541c0.406,1.398,0.605,2.709,0.545,3.871   c0.527-2.576-0.688-6.01-3.303-9.893c-0.244-0.326-0.486-0.654-0.746-0.982C82.568,56.59,83.246,57.75,83.828,58.887z" data-part-id="logo__item--logo_0__10"></path>
	<path fill="#FFFFFF" d="M27.621,21.32c1.456,0.249,3,0.596,4.623,1.053c-0.179-0.062-0.355-0.112-0.532-0.169   c-8.033-2.131-14.111-1.798-16.217,1.521c-0.397,0.628-0.636,1.341-0.728,2.126c0.112-0.728,0.34-1.394,0.708-1.987   C17.218,21.05,21.645,20.297,27.621,21.32z" data-part-id="logo__item--logo_0__11"></path>
	<path d="M86.014,61.555c-0.527-0.979-1.148-1.992-1.863-3.037c-0.715-1.047-1.514-2.119-2.406-3.217   c0.271,0.375,0.504,0.734,0.752,1.105c2.615,3.883,3.83,7.316,3.303,9.893c-0.121,0.598-0.303,1.168-0.621,1.67   c-2.088,3.289-8.076,3.646-16,1.58c-2.4-0.627-4.979-1.477-7.676-2.533c-5.79-2.27-12.144-5.496-18.54-9.555   c-2.822-1.793-5.49-3.646-7.986-5.529c-1.026-0.773-2.024-1.554-2.988-2.334c-0.333-0.268-0.666-0.539-0.989-0.81   c-4.446-3.686-8.152-7.397-10.899-10.859c-3.743-4.715-5.708-8.967-5.333-12.077c0.092-0.785,0.331-1.498,0.728-2.126   c2.106-3.319,8.185-3.651,16.217-1.521c0.179,0.047,0.355,0.09,0.534,0.139c-1.456-0.477-2.861-0.879-4.218-1.222   c-1.416-0.357-2.77-0.636-4.059-0.849c-0.639-0.104-1.257-0.189-1.86-0.258c-5.462-0.606-9.471,0.298-11.155,2.948   c-0.433,0.683-0.696,1.46-0.797,2.313c-0.959,7.899,11.848,22.534,30.855,34.604C62.065,73.25,82.75,78.396,87.205,71.377   c0.324-0.508,0.541-1.074,0.682-1.674C88.391,67.506,87.705,64.715,86.014,61.555z" data-part-id="logo__item--logo_0__12"></path>
</g>
    </g>
</g></svg>